<mxfile host="Electron" agent="Mozilla/5.0 (Windows NT 10.0; Win64; x64) AppleWebKit/537.36 (KHTML, like Gecko) draw.io/26.0.16 Chrome/132.0.6834.196 Electron/34.2.0 Safari/537.36" version="26.0.16">
  <diagram name="Page-1" id="yRqzTYOTjfUKaQn82znz">
    <mxGraphModel dx="4416" dy="1911" grid="1" gridSize="10" guides="1" tooltips="1" connect="1" arrows="1" fold="1" page="1" pageScale="1" pageWidth="1600" pageHeight="1200" math="0" shadow="0">
      <root>
        <mxCell id="0" />
        <mxCell id="1" parent="0" />
        <mxCell id="OE18YYVp4GpnSYSLuLPd-21" style="edgeStyle=orthogonalEdgeStyle;rounded=0;orthogonalLoop=1;jettySize=auto;html=1;exitX=0.5;exitY=0;exitDx=0;exitDy=0;" edge="1" parent="1" source="OE18YYVp4GpnSYSLuLPd-1" target="OE18YYVp4GpnSYSLuLPd-20">
          <mxGeometry relative="1" as="geometry" />
        </mxCell>
        <mxCell id="OE18YYVp4GpnSYSLuLPd-1" value="&lt;font style=&quot;font-size: 26px;&quot;&gt;Secret managing routes&lt;/font&gt;" style="rounded=1;whiteSpace=wrap;html=1;arcSize=17;fillColor=#0050ef;fontColor=#ffffff;strokeColor=#001DBC;" vertex="1" parent="1">
          <mxGeometry x="440" y="-420" width="370" height="150" as="geometry" />
        </mxCell>
        <mxCell id="OE18YYVp4GpnSYSLuLPd-7" style="edgeStyle=orthogonalEdgeStyle;rounded=0;orthogonalLoop=1;jettySize=auto;html=1;exitX=0.5;exitY=0;exitDx=0;exitDy=0;" edge="1" parent="1" source="OE18YYVp4GpnSYSLuLPd-2" target="OE18YYVp4GpnSYSLuLPd-1">
          <mxGeometry relative="1" as="geometry" />
        </mxCell>
        <mxCell id="OE18YYVp4GpnSYSLuLPd-2" value="&lt;font style=&quot;font-size: 26px;&quot;&gt;create&lt;/font&gt;" style="rounded=1;whiteSpace=wrap;html=1;arcSize=17;fillColor=#0050ef;fontColor=#ffffff;strokeColor=#001DBC;" vertex="1" parent="1">
          <mxGeometry x="-190" y="-70" width="370" height="150" as="geometry" />
        </mxCell>
        <mxCell id="OE18YYVp4GpnSYSLuLPd-9" style="edgeStyle=orthogonalEdgeStyle;rounded=0;orthogonalLoop=1;jettySize=auto;html=1;exitX=0.5;exitY=0;exitDx=0;exitDy=0;" edge="1" parent="1" source="OE18YYVp4GpnSYSLuLPd-3">
          <mxGeometry relative="1" as="geometry">
            <mxPoint x="640" y="-280" as="targetPoint" />
          </mxGeometry>
        </mxCell>
        <mxCell id="OE18YYVp4GpnSYSLuLPd-3" value="&lt;font style=&quot;font-size: 26px;&quot;&gt;delete&lt;/font&gt;" style="rounded=1;whiteSpace=wrap;html=1;arcSize=17;fillColor=#0050ef;fontColor=#ffffff;strokeColor=#001DBC;" vertex="1" parent="1">
          <mxGeometry x="790" y="-70" width="370" height="150" as="geometry" />
        </mxCell>
        <mxCell id="OE18YYVp4GpnSYSLuLPd-10" style="edgeStyle=orthogonalEdgeStyle;rounded=0;orthogonalLoop=1;jettySize=auto;html=1;exitX=0.5;exitY=0;exitDx=0;exitDy=0;" edge="1" parent="1" source="OE18YYVp4GpnSYSLuLPd-5">
          <mxGeometry relative="1" as="geometry">
            <mxPoint x="630" y="-270" as="targetPoint" />
          </mxGeometry>
        </mxCell>
        <mxCell id="OE18YYVp4GpnSYSLuLPd-5" value="&lt;font style=&quot;font-size: 26px;&quot;&gt;delete&lt;/font&gt;" style="rounded=1;whiteSpace=wrap;html=1;arcSize=17;fillColor=#0050ef;fontColor=#ffffff;strokeColor=#001DBC;" vertex="1" parent="1">
          <mxGeometry x="1280" y="-70" width="370" height="150" as="geometry" />
        </mxCell>
        <mxCell id="OE18YYVp4GpnSYSLuLPd-8" style="edgeStyle=orthogonalEdgeStyle;rounded=0;orthogonalLoop=1;jettySize=auto;html=1;exitX=0.5;exitY=0;exitDx=0;exitDy=0;" edge="1" parent="1" source="OE18YYVp4GpnSYSLuLPd-6" target="OE18YYVp4GpnSYSLuLPd-1">
          <mxGeometry relative="1" as="geometry" />
        </mxCell>
        <mxCell id="OE18YYVp4GpnSYSLuLPd-6" value="&lt;font style=&quot;font-size: 26px;&quot;&gt;update&lt;/font&gt;" style="rounded=1;whiteSpace=wrap;html=1;arcSize=17;fillColor=#0050ef;fontColor=#ffffff;strokeColor=#001DBC;" vertex="1" parent="1">
          <mxGeometry x="300" y="-70" width="370" height="150" as="geometry" />
        </mxCell>
        <mxCell id="OE18YYVp4GpnSYSLuLPd-12" value="&lt;font style=&quot;font-size: 26px; color: rgb(0, 0, 0);&quot;&gt;Secret managing user-story&lt;/font&gt;" style="rounded=1;whiteSpace=wrap;html=1;arcSize=17;fillColor=#ffcccc;strokeColor=#36393d;" vertex="1" parent="1">
          <mxGeometry x="3280" y="-70" width="370" height="150" as="geometry" />
        </mxCell>
        <mxCell id="OE18YYVp4GpnSYSLuLPd-13" value="&lt;font style=&quot;font-size: 26px; color: rgb(0, 51, 0);&quot;&gt;Secret managing user-story&lt;/font&gt;" style="rounded=1;whiteSpace=wrap;html=1;arcSize=17;fillColor=#d5e8d4;strokeColor=#82b366;gradientColor=#97d077;" vertex="1" parent="1">
          <mxGeometry x="4880" y="-70" width="370" height="150" as="geometry" />
        </mxCell>
        <mxCell id="OE18YYVp4GpnSYSLuLPd-14" value="&lt;font style=&quot;font-size: 26px; color: rgb(0, 51, 0);&quot;&gt;Secret managing project folders structure&lt;/font&gt;" style="rounded=1;whiteSpace=wrap;html=1;arcSize=17;fillColor=#d5e8d4;strokeColor=#82b366;gradientColor=#97d077;" vertex="1" parent="1">
          <mxGeometry x="6580" y="-70" width="460" height="150" as="geometry" />
        </mxCell>
        <mxCell id="OE18YYVp4GpnSYSLuLPd-15" value="&lt;font style=&quot;font-size: 26px; color: rgb(0, 51, 0);&quot;&gt;Secret managing project files structure&lt;/font&gt;" style="rounded=1;whiteSpace=wrap;html=1;arcSize=17;fillColor=#d5e8d4;strokeColor=#82b366;gradientColor=#97d077;" vertex="1" parent="1">
          <mxGeometry x="8010" y="-70" width="430" height="150" as="geometry" />
        </mxCell>
        <mxCell id="OE18YYVp4GpnSYSLuLPd-17" value="&lt;font style=&quot;font-size: 26px; color: rgb(0, 51, 0);&quot;&gt;Secret managing project files structure&lt;/font&gt;" style="rounded=1;whiteSpace=wrap;html=1;arcSize=17;fillColor=#d5e8d4;strokeColor=#82b366;gradientColor=#97d077;" vertex="1" parent="1">
          <mxGeometry x="9060" y="-70" width="430" height="150" as="geometry" />
        </mxCell>
        <mxCell id="OE18YYVp4GpnSYSLuLPd-18" value="&lt;font style=&quot;font-size: 26px; color: rgb(0, 51, 0);&quot;&gt;Secret managing project files structure&lt;/font&gt;" style="rounded=1;whiteSpace=wrap;html=1;arcSize=17;fillColor=#d5e8d4;strokeColor=#82b366;gradientColor=#97d077;" vertex="1" parent="1">
          <mxGeometry x="5820" y="105" width="430" height="150" as="geometry" />
        </mxCell>
        <mxCell id="OE18YYVp4GpnSYSLuLPd-19" value="&lt;font style=&quot;font-size: 26px;&quot;&gt;Secret managing code structure&lt;/font&gt;" style="rounded=1;whiteSpace=wrap;html=1;arcSize=17;fillColor=#0050ef;fontColor=#ffffff;strokeColor=#001DBC;" vertex="1" parent="1">
          <mxGeometry x="-1980" y="-70" width="370" height="150" as="geometry" />
        </mxCell>
        <mxCell id="OE18YYVp4GpnSYSLuLPd-20" value="&lt;font style=&quot;font-size: 26px;&quot;&gt;Secret managing app&lt;/font&gt;" style="rounded=1;whiteSpace=wrap;html=1;arcSize=17;fillColor=#0050ef;fontColor=#ffffff;strokeColor=#001DBC;" vertex="1" parent="1">
          <mxGeometry x="440" y="-880" width="370" height="150" as="geometry" />
        </mxCell>
      </root>
    </mxGraphModel>
  </diagram>
</mxfile>
